<svg xmlns="http://www.w3.org/2000/svg" viewBox="0 0 1582 457.5" fill="none" role="img" aria-label="SKALog">
  <g transform="translate(0 0) scale(2.049091 2.048795)">
    <path fill="#111827" d="M60.759 166 L50.998 166 L41.5 165 L31.721 161.802 L22.5 157 L14.885 150.82 L8.296 143.987 L3.416 135 L0 125.5 L0 120 L32.5 120 L33.917 123.5 L35.382 126.172 L37.09 128.856 L39.5 131 L44.166 133.249 L49.5 135 L57.343 135 L61.247 135 L64.5 134 L68.079 132.273 L70.519 131 L73.447 128.368 L76 125.5 L76.619 122.511 L76.619 119.094 L76.619 116.166 L76 112.5 L73.935 108.356 L70.519 105.428 L62.955 101.767 L55.146 98.839 L39.5 93 L30.745 89.321 L22.5 85 L16.837 80.535 L12 75.5 L9.272 71.261 L7.076 66.869 L5.368 62.232 L4 57.5 L4 43.44 L5.124 37.583 L7.076 31.97 L9.516 26.845 L12.445 22.208 L16.105 17.815 L19.765 14.155 L23.913 10.494 L28.549 7.565 L33.917 5.125 L39.042 3.173 L44.744 1.952 L50.51 1.22 L58.075 1.22 L64.5 1.22 L69.543 1.952 L74.667 3.173 L79.791 4.637 L84.428 7 L88.576 9.274 L92.968 12.446 L96.872 15.863 L100.288 19.524 L103 23.5 L105.413 27.333 L107.365 31.482 L109 35.631 L110 40.5 L110 46.125 L77.839 46.125 L76.619 42.708 L74.667 39.047 L70.519 34.899 L64.5 32.214 L58.075 31.238 L53.682 31.482 L49.046 32.214 L46.118 33.434 L43.434 34.899 L41.238 36.363 L39.042 38.5 L38.066 41.732 L37.578 46.369 L38.066 50.762 L40.994 55.398 L44.744 59 L78.5 71 L91.5 78 L96.872 82.732 L102 88.5 L106.145 96.642 L109 106.5 L109 123.5 L108.097 128.856 L106.145 134.469 L103.461 139.594 L100 144.5 L97.848 147.16 L95.408 149.844 L92.968 152.285 L89.5 155 L85.892 157.654 L81.5 160 L76.619 162.291 L71.739 163.999 L66.371 165.463 L60.759 166 Z"/>
  </g>
  <g transform="translate(264.3 8.2) scale(2.048302 2.048447)">
    <path fill="#111827" d="M36.469 161 L0.83 161 L0.83 0 L36.469 0 L36.469 161 Z M85.778 66.294 L72 49.5 L70.644 47.255 L70 44.5 L70.156 40.665 L70.644 37.248 L71.62 33.831 L73.329 30.413 L97.984 0.879 L136.796 0.879 L85.778 66.294 Z M134.599 161 L98.5 161 L68.691 117.797 L42.572 81.672 L42.572 71.664 L43.304 69.711 L44.281 68.003 L62.833 44.326 L64.541 49.5 L66.738 53.357 L86.511 78.987 L134.599 152.945 L134.599 161 Z"/>
    <path fill="#6c4dff" d="M85.778 66.294 L72 49.5 L70.644 47.255 L70 44.5 L70.156 40.665 L70.644 37.248 L71.62 33.831 L73.329 30.413 L97.984 0.879 L136.796 0.879 L85.778 66.294 Z"/>
  </g>
  <g transform="translate(537.8 8.2) scale(2.048544 2.048447)">
    <path fill="#111827" fill-rule="evenodd" d="M1.562 152.701 L59.896 0.635 L94.067 0.635 L155.574 161 L118 161 L106.271 129.513 L46.472 129.513 L35.489 161 L1.562 161 L1.562 152.701 Z M94.5 96.5 L76.493 42.618 L57.944 96.5 L94.5 96.5 Z"/>
  </g>
  <g transform="translate(856.4 8.2) scale(2.048780 2.048447)">
    <path fill="#111827" d="M102.5 161 L1.5 161 L0 159.5 L0 1.5 L0 0 L1.5 0 L36 0.5 L36 126.5 L102.5 127 L102.5 161 Z"/>
  </g>
  <g transform="translate(1056 91)">
    <path fill="#111827" fill-rule="evenodd" d="M 153.0 247.0 L 128.0 247.0 L 102.0 242.0 L 74.0 230.0 L 59.0 220.0 L 42.5 204.5 L 29.5 186.5 L 18.5 161.5 L 13.5 136.5 L 13.5 110.5 L 18.5 85.5 L 28.5 62.5 L 43.5 41.5 L 58.0 28.0 L 76.0 16.0 L 103.0 5.0 L 122.0 1.0 L 148.0 0.0 L 174.0 4.0 L 199.0 13.0 L 216.0 23.0 L 240.5 45.5 L 250.5 59.5 L 260.5 80.5 L 266.5 104.5 L 267.5 132.5 L 262.5 160.5 L 250.5 187.5 L 241.5 200.5 L 229.0 214.0 L 207.0 230.0 L 179.0 242.0 Z M 150.5 182.5 L 160.0 180.0 L 172.0 173.0 L 185.5 158.5 L 193.5 138.5 L 194.5 113.5 L 188.5 93.5 L 178.5 79.5 L 172.0 74.0 L 157.0 66.0 L 133.0 64.0 L 113.0 71.0 L 96.5 86.5 L 86.5 109.5 L 85.5 131.5 L 88.5 145.5 L 93.5 156.5 L 108.0 173.0 L 120.0 180.0 L 130.0 183.0 Z"/>
  </g>
  <g transform="translate(1333 91.5)">
    <path fill="#111827" fill-rule="evenodd" d="M 142.5 366.0 L 113.5 366.0 L 94.5 363.0 L 69.5 354.0 L 54.5 345.0 L 37.0 328.5 L 28.0 315.5 L 21.0 299.5 L 18.0 282.5 L 90.5 282.0 L 97.0 293.5 L 111.5 303.0 L 124.5 306.0 L 137.5 306.0 L 151.5 303.0 L 164.5 295.0 L 174.0 281.5 L 179.0 258.5 L 179.0 227.5 L 147.5 243.0 L 127.5 247.0 L 105.5 247.0 L 68.5 238.0 L 40.5 221.0 L 18.0 194.5 L 4.0 161.5 L 0.0 138.5 L 0.0 109.5 L 6.0 79.5 L 16.0 56.5 L 32.0 34.5 L 58.5 14.0 L 80.5 5.0 L 109.5 0.0 L 142.5 3.0 L 170.5 15.0 L 185.5 29.0 L 186.5 5.0 L 248.5 5.0 L 249.0 264.5 L 244.0 291.5 L 231.0 319.5 L 207.5 344.0 L 183.5 357.0 L 167.5 362.0 Z M 137.0 183.5 L 155.5 177.0 L 170.0 163.5 L 178.0 143.5 L 179.0 116.5 L 177.0 104.5 L 170.0 88.5 L 157.5 75.0 L 141.5 67.0 L 122.5 65.0 L 111.5 67.0 L 98.5 73.0 L 82.0 90.5 L 75.0 111.5 L 75.0 137.5 L 84.0 161.5 L 96.5 175.0 L 116.5 184.0 Z"/>
  </g>
</svg>
